HIERARCHY
ROOT Hips
{
  OFFSET 0 0 0
  CHANNELS 6 Xposition Yposition Zposition Zrotation Xrotation Yrotation
  JOINT LeftUpLeg
  {
    OFFSET 4.06525 -3.90732 0.41711
    CHANNELS 3 Zrotation Xrotation Yrotation
    JOINT LeftLeg
    {
      OFFSET 0.00023 -18.4821 0.00367
      CHANNELS 3 Zrotation Xrotation Yrotation
      JOINT LeftFoot
      {
        OFFSET -0.00172 -15.2898 -0.02629
        CHANNELS 3 Zrotation Xrotation Yrotation
        JOINT LeftToeBase
        {
          OFFSET 0.36743 -3.19131 5.54287
          CHANNELS 3 Zrotation Xrotation Yrotation
          JOINT LeftToeBase2
          {
            OFFSET 0.08751 0.04849 1.36758
            CHANNELS 3 Zrotation Xrotation Yrotation
            JOINT LeftToeBase3
            {
              OFFSET 0.07484 0.06785 1.16707
            }
          }
        }
      }
    }
  }
  JOINT RightUpLeg
  {
    OFFSET -4.06526 -3.90731 0.41712
    CHANNELS 3 Zrotation Xrotation Yrotation
    JOINT RightLeg
    {
      OFFSET -0.00029 -18.4821 0.0044
      CHANNELS 3 Zrotation Xrotation Yrotation
      JOINT RightFoot
      {
        OFFSET 0.0016 -15.2898 -0.02569
        CHANNELS 3 Zrotation Xrotation Yrotation
        JOINT RightToeBase
        {
          OFFSET -0.3542 -3.19109 5.54386
          CHANNELS 3 Zrotation Xrotation Yrotation
          JOINT RightToeBase2
          {
            OFFSET -0.08424 0.04854 1.36778
            CHANNELS 3 Zrotation Xrotation Yrotation
            JOINT RightToeBase3
            {
              OFFSET -0.07205 0.0679 1.16725
            }
          }
        }
      }
    }
  }
  JOINT Spine
  {
    OFFSET 1e-005 4.46517 -0.10224
    CHANNELS 3 Zrotation Xrotation Yrotation
    JOINT Spine1
    {
      OFFSET 1e-005 4.46212 -0.1824
      CHANNELS 3 Zrotation Xrotation Yrotation
      JOINT Spine2
      {
        OFFSET 0 4.37937 -0.881
        CHANNELS 3 Zrotation Xrotation Yrotation
        JOINT Spine3
        {
          OFFSET 1e-005 4.68286 0.21414
          CHANNELS 3 Zrotation Xrotation Yrotation
          JOINT Neck
          {
            OFFSET 0 1.76964 0.82454
            CHANNELS 3 Zrotation Xrotation Yrotation
            JOINT Head
            {
              OFFSET 0 1.6961 0.93145
              CHANNELS 3 Zrotation Xrotation Yrotation
              JOINT Head_End
              {
                OFFSET 1e-005 7.8375 1.52603
              }
            }
          }
          JOINT LeftShoulder
          {
            OFFSET 1.19381 -0.75881 -0.02768
            CHANNELS 3 Zrotation Xrotation Yrotation
            JOINT LeftArm
            {
              OFFSET 5.18779 -2e-005 1e-005
              CHANNELS 3 Zrotation Xrotation Yrotation
              JOINT LeftForeArm
              {
                OFFSET 12.7364 -4e-005 2e-005
                CHANNELS 3 Zrotation Xrotation Yrotation
                JOINT LeftHand
                {
                  OFFSET 9.21452 -2e-005 1e-005
                  CHANNELS 3 Zrotation Xrotation Yrotation
                }
              }
            }
          }
          JOINT RightShoulder
          {
            OFFSET -1.19381 -0.75881 -0.02767
            CHANNELS 3 Zrotation Xrotation Yrotation
            JOINT RightArm
            {
              OFFSET -5.18779 1e-005 -1e-005
              CHANNELS 3 Zrotation Xrotation Yrotation
              JOINT RightForeArm
              {
                OFFSET -12.7364 3e-005 -2e-005
                CHANNELS 3 Zrotation Xrotation Yrotation
                JOINT RightHand
                {
                  OFFSET -9.21452 2e-005 -1e-005
                  CHANNELS 3 Zrotation Xrotation Yrotation
                }
              }
            }
          }
        }
      }
    }
  }
}
MOTION
Frames: 16
Frame Time: 	0.0166667
1.67225 41.1508 7.01532 2.28565 -4.13431 6.93386 -0.600971 -7.47919 12.1102  -0.00018063 26.742 -0.0454621  2.59819 -14.618 -5.26482  3.76697e-014 -1.29381e-011 -1.02101e-010  -0 0 -0   -10.5587 -9.31251 3.53764  3.56504e-005 28.4236 0.0268253  7.60831 -11.6963 -4.86455  -6.99662e-012 -1.7531e-011 -9.24301e-011  -0 0 -0   -2.94834 1.16807 -0.967555  -1.5288 2.65621 -0.632155  -1.46124 3.63631 -0.846836  -3.05706 7.77484 -1.26747  0.116113 0.159156 9.95443  1.51248 -14.8851 10.155   -2.95324 2.21766 -10.4871  -52.5612 -0.507281 -18.7092  1.82977e-011 1.35458e-011 -41.294  7.69777 0.918273 -4.66417  9.00618 2.95047 5.68597  74.6357 15.611 -0.373971  3.75654e-011 -1.2567e-010 9.15848  0.402831 -24.171 -3.59946 
1.6565 41.1473 7.16763 2.38172 -3.87984 7.27342 -0.69644 -7.51964 11.9275  -0.000333931 26.7469 -0.0444603  2.51385 -14.7997 -5.44274  3.76697e-014 -1.29381e-011 -1.02101e-010  -0 0 -0   -10.6507 -8.84749 3.67412  2.21183e-005 27.1893 0.0246848  7.54832 -11.9782 -5.22203  -6.99662e-012 -1.7531e-011 -9.24301e-011  -0 0 -0   -2.91384 1.01479 -0.935376  -1.53535 2.61254 -0.611775  -1.49336 3.64282 -0.829262  -3.16833 7.85136 -1.22789  0.0322634 0.29116 9.9658  1.42582 -14.8407 10.1514   -2.90004 2.22458 -10.6436  -52.5122 -0.452458 -19.1951  1.84517e-011 1.3409e-011 -41.9485  7.63107 2.18814 -4.77684  9.05285 2.9567 5.63173  74.8455 15.932 -0.702027  3.69425e-011 -1.25769e-010 8.8746  1.10668 -22.5906 -3.29716 
1.63611 41.1504 7.3085 2.41264 -3.65579 7.58978 -0.708618 -7.53832 11.7701  -0.000259499 26.7185 -0.0434975  2.41576 -14.9437 -5.63421  3.76697e-014 -1.29381e-011 -1.02101e-010  -0 0 -0   -10.6513 -8.35488 3.68692  0.000134332 26.2958 0.0229421  7.51237 -12.3738 -5.64189  -6.99662e-012 -1.7531e-011 -9.24301e-011  -0 0 -0   -2.84812 0.901556 -0.916795  -1.52435 2.5757 -0.597659  -1.50391 3.64001 -0.815045  -3.23136 7.89054 -1.19981  -0.0841943 0.402296 10.0421  1.30965 -14.7893 10.2065   -2.90087 2.23712 -10.7129  -52.5808 -0.224168 -19.5377  1.8599e-011 1.32751e-011 -42.5813  7.67904 3.23393 -4.7603  9.05784 2.9542 5.58984  75.0283 16.2904 -0.929247  3.64009e-011 -1.25852e-010 8.62793  1.60964 -21.0472 -2.9375 
1.61161 41.1591 7.43991 2.3928 -3.45513 7.88075 -0.65551 -7.53682 11.6375  -0.000146072 26.6526 -0.0425532  2.3071 -15.0532 -5.83383  3.76697e-014 -1.29381e-011 -1.02101e-010  -0 0 -0   -10.5924 -7.85607 3.58607  0.000230474 25.6157 0.0214725  7.49553 -12.7834 -6.03862  -6.99662e-012 -1.7531e-011 -9.24301e-011  -0 0 -0   -2.76382 0.820113 -0.904818  -1.49885 2.54471 -0.586935  -1.49569 3.62777 -0.801808  -3.24975 7.89235 -1.17727  -0.209512 0.506552 10.1926  1.15368 -14.7451 10.334   -2.94182 2.25599 -10.7239  -52.7897 0.121414 -19.7437  1.87177e-011 1.3165e-011 -43.0955  7.80427 4.02541 -4.74385  9.0316 2.94357 5.54838  75.1732 16.6758 -1.06384  3.59714e-011 -1.25917e-010 8.43245  1.79734 -19.7931 -2.54485 
1.58366 41.1729 7.56276 2.32426 -3.28885 8.13842 -0.538182 -7.49493 11.5379  -1.55639e-005 26.5397 -0.0416045  2.19137 -15.1353 -6.04343  3.76697e-014 -1.29381e-011 -1.02101e-010  -0 0 -0   -10.4912 -7.34842 3.37895  0.000198214 24.9563 0.0202024  7.52151 -13.0945 -6.28852  -6.99662e-012 -1.7531e-011 -9.24301e-011  -0 0 -0   -2.66472 0.779383 -0.897231  -1.45972 2.52304 -0.578645  -1.46863 3.60431 -0.788672  -3.22086 7.84985 -1.15889  -0.326365 0.615069 10.4336  0.950571 -14.7198 10.5537   -3.02136 2.28569 -10.6859  -53.1711 0.569083 -19.8244  1.87839e-011 1.31028e-011 -43.3843  8.11129 4.26971 -4.91038  8.97892 2.92323 5.49592  75.266 17.0967 -1.09985  3.56163e-011 -1.25969e-010 8.27092  1.55213 -19.1942 -2.09032 
1.55199 41.192 7.6801 2.22432 -3.14349 8.36451 -0.377883 -7.4222 11.4668  0.000115729 26.3759 -0.0406314  2.06657 -15.1812 -6.2567  3.76697e-014 -1.29381e-011 -1.02101e-010  -0 0 -0   -10.3639 -6.85068 3.07626  5.23463e-005 24.3316 0.0191038  7.56817 -13.3165 -6.4039  -6.99662e-012 -1.7531e-011 -9.24301e-011  -0 0 -0   -2.56581 0.766393 -0.88948  -1.41216 2.50618 -0.570765  -1.42609 3.57078 -0.774204  -3.14516 7.7705 -1.14131  -0.423377 0.734206 10.775  0.693331 -14.7173 10.8773   -3.12749 2.31557 -10.6148  -53.697 1.08158 -19.7474  1.88163e-011 1.3072e-011 -43.5264  8.3805 4.31818 -5.10433  8.9079 2.8951 5.44023  75.3049 17.5183 -1.06502  3.54238e-011 -1.25997e-010 8.18338  0.925688 -19.045 -1.64657 
1.51595 41.2164 7.79207 2.10768 -3.01261 8.55384 -0.190605 -7.31873 11.4346  0.000231065 26.156 -0.0396139  1.93041 -15.1838 -6.47789  3.76697e-014 -1.29381e-011 -1.02101e-010  -0 0 -0   -10.2335 -6.36669 2.68719  -0.000164458 23.6727 0.0181376  7.64112 -13.4197 -6.35078  -6.99662e-012 -1.7531e-011 -9.24301e-011  -0 0 -0   -2.48203 0.775096 -0.87618  -1.36114 2.49119 -0.560867  -1.37094 3.52643 -0.756536  -3.02155 7.65438 -1.12059  -0.481852 0.880897 11.2264  0.373893 -14.7543 11.3185   -3.23927 2.33259 -10.5307  -54.3893 1.57584 -19.4613  1.88292e-011 1.30597e-011 -43.5831  8.38335 4.48138 -5.24024  8.82974 2.86015 5.38212  75.2846 17.9183 -0.986117  3.54448e-011 -1.25993e-010 8.19289  -0.0863366 -19.2851 -1.25151 
1.47574 41.2451 7.89862 1.98169 -2.88634 8.71126 0.00675765 -7.19284 11.4049  0.000314768 25.8751 -0.0385324  1.78781 -15.1445 -6.67694  3.76697e-014 -1.29381e-011 -1.02101e-010  -0 0 -0   -10.1006 -5.93934 2.2227  -0.000457687 23.0371 0.0172846  7.67705 -13.409 -6.14496  -6.99662e-012 -1.7531e-011 -9.24301e-011  -0 0 -0   -2.41656 0.793627 -0.857691  -1.30816 2.47685 -0.549188  -1.30441 3.47514 -0.736091  -2.85208 7.51661 -1.09703  -0.508646 1.034 11.8048  -0.00949014 -14.8024 11.8916   -3.38177 2.34838 -10.4295  -55.1305 2.17403 -19.0345  1.88101e-011 1.30779e-011 -43.4993  8.25111 4.58889 -5.29062  8.73996 2.81974 5.33111  75.2012 18.2679 -0.860168  3.57531e-011 -1.25949e-010 8.33313  -1.43361 -19.8446 -0.980559 
1.43128 41.2774 8.00179 1.85738 -2.75478 8.83865 0.193009 -7.04584 11.3445  0.000343763 25.5161 -0.0373642  1.64205 -15.058 -6.82441  3.76697e-014 -1.29381e-011 -1.02101e-010  -0 0 -0   -9.97919 -5.63199 1.6808  -0.000827991 22.4753 0.0165232  7.58151 -13.2521 -5.75844  -6.99662e-012 -1.7531e-011 -9.24301e-011  -0 0 -0   -2.37886 0.811097 -0.83239  -1.25608 2.46164 -0.535133  -1.22748 3.41896 -0.712534  -2.63431 7.36755 -1.06959  -0.503621 1.1807 12.5298  -0.467527 -14.8427 12.6154   -3.57789 2.36995 -10.3131  -55.8039 2.97686 -18.4997  1.87568e-011 1.31283e-011 -43.2663  8.0135 4.57665 -5.15625  8.63653 2.77473 5.29522  75.0492 18.5334 -0.696867  3.64517e-011 -1.25844e-010 8.65106  -3.12671 -20.6706 -0.937165 
1.38329 41.3116 8.10044 1.73734 -2.61174 8.94295 0.366298 -6.89875 11.2545  0.000331239 25.11 -0.0361027  1.49481 -14.9375 -6.92289  3.76697e-014 -1.29381e-011 -1.02101e-010  -0 0 -0   -9.86302 -5.38717 1.10823  -0.00124521 21.939 0.0158201  7.44187 -13.0288 -5.29158  -6.99662e-012 -1.7531e-011 -9.24301e-011  -0 0 -0   -2.36496 0.818528 -0.800872  -1.20584 2.44346 -0.51876  -1.14367 3.36265 -0.686267  -2.38076 7.22141 -1.03826  -0.468027 1.3128 13.4033  -0.983561 -14.8606 13.4892   -3.81345 2.39814 -10.1838  -56.4288 3.96577 -17.9116  1.86509e-011 1.32272e-011 -42.8057  7.74658 4.43597 -4.96687  8.52354 2.7276 5.27972  74.8277 18.7067 -0.484928  3.75027e-011 -1.2568e-010 9.12992  -4.98728 -21.6516 -1.07496 
1.33241 41.3457 8.19347 1.62778 -2.44382 9.03006 0.516001 -6.77784 11.1187  0.000222144 24.6825 -0.0345882  1.34789 -14.7934 -6.95925  3.76697e-014 -1.29381e-011 -1.02101e-010  -0 0 -0   -9.74901 -5.16671 0.55719  -0.00169205 21.3899 0.0151611  7.32424 -12.8161 -4.84366  -6.99662e-012 -1.7531e-011 -9.24301e-011  -0 0 -0   -2.37755 0.79985 -0.763511  -1.15933 2.41854 -0.500273  -1.05519 3.31161 -0.657803  -2.09625 7.09683 -1.00332  -0.395832 1.4092 14.4469  -1.56187 -14.8222 14.5315   -4.08964 2.43782 -10.0415  -56.9722 5.19063 -17.3408  1.84648e-011 1.33972e-011 -42.0046  7.62283 4.0587 -4.87129  8.40266 2.67905 5.29441  74.5287 18.7664 -0.217089  3.89373e-011 -1.25441e-010 9.78453  -6.8849 -22.7091 -1.44658 
1.27911 41.3796 8.28286 1.52814 -2.26275 9.10012 0.647049 -6.66818 10.9556  0.000138486 24.2313 -0.033122  1.20243 -14.6274 -6.9517  3.76697e-014 -1.29381e-011 -1.02101e-010  -0 0 -0   -9.6409 -4.97754 0.00965069  -0.00217229 20.8487 0.014546  7.20735 -12.5946 -4.38762  -6.99662e-012 -1.7531e-011 -9.24301e-011  -0 0 -0   -2.40561 0.765458 -0.719366  -1.11653 2.3904 -0.478653  -0.966893 3.26595 -0.626459  -1.80152 6.99088 -0.962844  -0.304763 1.49622 15.6216  -2.15701 -14.7652 15.7034   -4.38346 2.48398 -9.89515  -57.4735 6.54686 -16.7732  1.82182e-011 1.36152e-011 -40.9588  7.38266 3.67916 -4.71318  8.27923 2.6354 5.33372  74.1683 18.7198 0.109015  4.06488e-011 -1.25134e-010 10.5671  -8.68644 -23.6929 -1.85846 
1.22306 41.4132 8.36557 1.44243 -2.07239 9.15816 0.755917 -6.56435 10.7739  4.88836e-005 23.7567 -0.0316418  1.0608 -14.4412 -6.90913  3.76697e-014 -1.29381e-011 -1.02101e-010  -0 0 -0   -9.54443 -4.81796 -0.537702  -0.00268558 20.3239 0.0139733  7.09313 -12.3697 -3.92514  -6.99662e-012 -1.7531e-011 -9.24301e-011  -0 0 -0   -2.4435 0.717 -0.668139  -1.07898 2.36029 -0.453447  -0.884097 3.22849 -0.592212  -1.51568 6.91001 -0.915904  -0.209325 1.58729 16.9097  -2.72483 -14.7094 16.9864   -4.67241 2.53424 -9.75079  -57.9632 7.94078 -16.2186  1.79262e-011 1.38633e-011 -39.741  6.77186 3.50777 -4.35276  8.15962 2.60324 5.3978  73.7523 18.5497 0.502452  4.25747e-011 -1.24759e-010 11.4502  -10.234 -24.408 -2.15387 
1.16544 41.4457 8.44449 1.36349 -1.88279 9.20427 0.856868 -6.46423 10.587  -2.97669e-005 23.2764 -0.0301813  0.92111 -14.2451 -6.84636  3.76697e-014 -1.29381e-011 -1.02101e-010  -0 0 -0   -9.44926 -4.67568 -1.07659  -0.00322888 19.8141 0.0134404  6.97927 -12.1437 -3.46882  -6.99662e-012 -1.7531e-011 -9.24301e-011  -0 0 -0   -2.47771 0.664646 -0.608243  -1.04393 2.33129 -0.423145  -0.807663 3.19661 -0.553603  -1.24844 6.8447 -0.859743  -0.118078 1.69862 18.2696  -3.25714 -14.6731 18.3406   -4.95581 2.58559 -9.61722  -58.4346 9.38949 -15.6759  1.75759e-011 1.41471e-011 -38.3081  5.94667 3.50814 -3.88932  8.04223 2.58254 5.47938  73.3048 18.3081 0.950402  4.46134e-011 -1.24329e-010 12.3882  -11.4714 -24.9101 -2.27475 
1.10684 41.4768 8.51849 1.28757 -1.70672 9.24155 0.959792 -6.36047 10.406  -8.55825e-005 22.8051 -0.0287719  0.78297 -14.0485 -6.77393  3.76697e-014 -1.29381e-011 -1.02101e-010  -0 0 -0   -9.35086 -4.53751 -1.61833  -0.0038005 19.3227 0.0129452  6.86557 -11.9193 -3.01155  -6.99662e-012 -1.7531e-011 -9.24301e-011  -0 0 -0   -2.49396 0.619745 -0.537459  -1.00984 2.30753 -0.385795  -0.740999 3.16897 -0.50902  -1.01749 6.78833 -0.79089  -0.0463544 1.85661 19.6621  -3.72068 -14.6881 19.73   -5.2196 2.63252 -9.50504  -58.8885 10.9049 -15.1393  1.71633e-011 1.44635e-011 -36.6557  5.05687 3.66016 -3.32703  7.93271 2.57771 5.57094  72.8495 18.0308 1.44994  4.66359e-011 -1.23867e-010 13.3219  -12.2495 -25.1633 -2.0742 
1.04725 41.5062 8.58759 1.20865 -1.53989 9.27495 1.07395 -6.26353 10.2471  -9.06543e-005 22.353 -0.0274429  0.645226 -13.8555 -6.71321  3.76697e-014 -1.29381e-011 -1.02101e-010  -0 0 -0   -9.23552 -4.40447 -2.10727  -0.00439669 18.844 0.0124851  6.74908 -11.7009 -2.61379  -6.99662e-012 -1.7531e-011 -9.24301e-011  -0 0 -0   -2.48912 0.580403 -0.457387  -0.974629 2.28708 -0.342258  -0.681774 3.14459 -0.458887  -0.817914 6.73876 -0.710571  0.00393455 2.04166 21.0627  -4.13493 -14.7345 21.1278   -5.48108 2.68016 -9.41489  -59.3338 12.409 -14.6327  1.66741e-011 1.48151e-011 -34.7411  3.86765 4.12517 -2.81148  7.81554 2.58204 5.67346  72.3938 17.7482 1.98048  4.86677e-011 -1.23368e-010 14.2637  -12.689 -25.2464 -1.6621 
